# xmcd
# Track frame offsets:
# 150
# 14061
# 29190
# 49734
# 84007
#
# Disc length: 1429 seconds
# Revision: 0
# Processed by: cddbd v1.5.2PL0 Copyright (c) Steve Scherf et al.
# Submitted via: VisiTrax 2.10.3.257 - For more info visit www.synapsa.com
#
DISCID=39059305
DTITLE=Parker's Alibi - Beer Goggles EP
DYEAR=1900
DGENRE=Blues
TTITLE0=No Cuttin' Loose
TTITLE1=I Hope The Blues Will take Me Back
TTITLE2=One Of Those Nights
TTITLE3=Double Trouble
TTITLE4=Beer Goggles
EXTD=
EXTT0=
EXTT1=
EXTT2=
EXTT3=
EXTT4=
PLAYORDER=
